# xmcd
#
# Track frame offsets: 
#        150
#        16782
#        26186
#        39921
#        53923
#        65061
#        80043
#        92531
#        105047
#        115257
#        126057
#        136595
#        148924
#        158374
#
# Disc length: 2321 seconds
#
# Revision: 0
# Processed by: cddbd v1.5.2PL0 Copyright (c) Steve Scherf et al.
# Submitted via: ExactAudioCopy v0.95b4
#
DISCID=aa090f0e
DTITLE=Julia Crowe - Smoke and Steel
DYEAR=2009
DGENRE=Blues
TTITLE0=Smoke and Steel01 Smoke and Steel
TTITLE1=Smoke and Steel02 Rotten Tomatoes and Cheap Socks
TTITLE2=Smoke and Steel03 Black Feather
TTITLE3=Smoke and Steel04 Bats and Umbrellas
TTITLE4=Smoke and Steel05 Ace's Four Vagabonds
TTITLE5=Smoke and Steel06 Enniscorthy
TTITLE6=Smoke and Steel07 Red Tug
TTITLE7=Smoke and Steel08 Leaves
TTITLE8=Smoke and Steel09 If Today Could Always Be New Year's
TTITLE9=Smoke and Steel10 The Road To Indigo
TTITLE10=Smoke and Steel11 Sid's Swagger
TTITLE11=Smoke and Steel12 Roses Of Crimson Fire
TTITLE12=Smoke and Steel13 Tennessee Turk
TTITLE13=Smoke and Steel14 Pewter Sky
EXTD=
EXTT0=
EXTT1=
EXTT2=
EXTT3=
EXTT4=
EXTT5=
EXTT6=
EXTT7=
EXTT8=
EXTT9=
EXTT10=
EXTT11=
EXTT12=
EXTT13=
PLAYORDER=
